<svg width="65" height="61" viewBox="0 0 65 61" fill="none" xmlns="http://www.w3.org/2000/svg">
<path d="M34.3696 1.82194C34.5532 1.24847 35.3525 1.24847 35.5361 1.82194L41.5612 20.6449C41.6432 20.9013 41.8787 21.075 42.1443 21.075H61.6421C62.2363 21.075 62.4834 21.8466 62.0026 22.201L46.2286 33.8342C46.0136 33.9927 45.9237 34.2737 46.0058 34.5301L52.0309 53.3531C52.2145 53.9265 51.5679 54.4034 51.0873 54.049L35.3133 42.4158C35.0983 42.2572 34.8073 42.2572 34.5924 42.4158L18.8184 54.049C18.3378 54.4034 17.6912 53.9265 17.8748 53.3531L23.8999 34.5301C23.982 34.2737 23.892 33.9927 23.6771 33.8342L7.90308 22.201C7.42251 21.8466 7.66951 21.075 8.26353 21.075H27.7613C28.027 21.075 28.2624 20.9013 28.3445 20.6449L34.3696 1.82194Z" fill="#C62827" style="fill:#C62827;fill:color(display-p3 0.7765 0.1569 0.1529);fill-opacity:1;"/>
<path d="M33.1432 1.82194C33.3268 1.24847 34.126 1.24847 34.3096 1.82194L40.3348 20.6449C40.4168 20.9013 40.6523 21.075 40.9179 21.075H60.4157C61.0097 21.075 61.2567 21.8466 60.7762 22.201L45.0021 33.8342C44.7872 33.9927 44.6973 34.2737 44.7794 34.5301L50.8045 53.3531C50.9881 53.9265 50.3415 54.4034 49.8609 54.049L34.0869 42.4158C33.8719 42.2572 33.5809 42.2572 33.366 42.4158L17.5919 54.049C17.1114 54.4034 16.4647 53.9265 16.6483 53.3531L22.6735 34.5301C22.7556 34.2737 22.6656 33.9927 22.4507 33.8342L6.67666 22.201C6.19609 21.8466 6.44309 21.075 7.03711 21.075H26.5349C26.8005 21.075 27.036 20.9013 27.1181 20.6449L33.1432 1.82194Z" fill="#F5B400" style="fill:#F5B400;fill:color(display-p3 0.9608 0.7059 0.0000);fill-opacity:1;"/>
<path d="M31.9168 1.82194C32.1004 1.24847 32.8996 1.24847 33.0832 1.82194L39.1084 20.6449C39.1904 20.9013 39.4259 21.075 39.6915 21.075H59.1893C59.7833 21.075 60.0303 21.8466 59.5497 22.201L43.7757 33.8342C43.5608 33.9927 43.4708 34.2737 43.5529 34.5301L49.5781 53.3531C49.7617 53.9265 49.115 54.4034 48.6345 54.049L32.8604 42.4158C32.6455 42.2572 32.3545 42.2572 32.1396 42.4158L16.3655 54.049C15.885 54.4034 15.2383 53.9265 15.4219 53.3531L21.4471 34.5301C21.5292 34.2737 21.4392 33.9927 21.2243 33.8342L5.45027 22.201C4.96969 21.8466 5.21667 21.075 5.8107 21.075H25.3085C25.5741 21.075 25.8096 20.9013 25.8916 20.6449L31.9168 1.82194Z" fill="#1564C0" style="fill:#1564C0;fill:color(display-p3 0.0824 0.3922 0.7529);fill-opacity:1;"/>
<path d="M30.6904 1.82194C30.874 1.24847 31.6732 1.24847 31.8568 1.82194L37.8819 20.6449C37.964 20.9013 38.1995 21.075 38.4651 21.075H57.9629C58.5569 21.075 58.8039 21.8466 58.3233 22.201L42.5493 33.8342C42.3344 33.9927 42.2444 34.2737 42.3265 34.5301L48.3517 53.3531C48.5353 53.9265 47.8886 54.4034 47.4081 54.049L31.634 42.4158C31.4191 42.2572 31.1281 42.2572 30.9131 42.4158L15.1391 54.049C14.6585 54.4034 14.0119 53.9265 14.1955 53.3531L20.2206 34.5301C20.3027 34.2737 20.2128 33.9927 19.9979 33.8342L4.22385 22.201C3.74328 21.8466 3.99026 21.075 4.58429 21.075H24.0821C24.3477 21.075 24.5832 20.9013 24.6652 20.6449L30.6904 1.82194Z" fill="#548B2E" style="fill:#548B2E;fill:color(display-p3 0.3294 0.5451 0.1804);fill-opacity:1;"/>
<path d="M29.4639 1.82194C29.6475 1.24847 30.4468 1.24847 30.6304 1.82194L36.6555 20.6449C36.7376 20.9013 36.973 21.075 37.2387 21.075H56.7365C57.3305 21.075 57.5775 21.8466 57.0969 22.201L41.3229 33.8342C41.108 33.9927 41.018 34.2737 41.1001 34.5301L47.1252 53.3531C47.3088 53.9265 46.6622 54.4034 46.1816 54.049L30.4076 42.4158C30.1927 42.2572 29.9017 42.2572 29.6867 42.4158L13.9127 54.049C13.4321 54.4034 12.7855 53.9265 12.9691 53.3531L18.9942 34.5301C19.0763 34.2737 18.9864 33.9927 18.7715 33.8342L2.99744 22.201C2.51686 21.8466 2.76384 21.075 3.35787 21.075H22.8557C23.1213 21.075 23.3568 20.9013 23.4388 20.6449L29.4639 1.82194Z" fill="white" style="fill:white;fill-opacity:1;"/>
</svg>
